# xmcd
#
# Track frame offsets: 
#        150
#        8805
#        17936
#        32755
#        42989
#        54889
#        63866
#        82435
#        90734
#        97763
#        108281
#        117132
#        125360
#        136517
#        144959
#        153134
#        162115
#        172240
#
# Disc length: 2402 seconds
#
# Revision: 0
# Processed by: cddbd v1.5.2PL0 Copyright (c) Steve Scherf et al.
# Submitted via: ExactAudioCopy v0.99pb5
#
DISCID=da096012
DTITLE=Ralph Stanley - Old Time Pickin - A Clawhammer Banjo Collection
DYEAR=2008
DGENRE=Bluegrass
TTITLE0=Rocky Island
TTITLE1=Shout Little Lulie
TTITLE2=Battle Ax
TTITLE3=Pretty Girls, City Lights
TTITLE4=Cripple Creek
TTITLE5=I've Got A Mule To Ride
TTITLE6=Old Mcdonald/Cindy
TTITLE7=Shady Grove
TTITLE8=John Henry
TTITLE9=Little Birdie
TTITLE10=Cuttin' The Cornbread
TTITLE11=Bound To Ride
TTITLE12=Married Life Blues
TTITLE13=Black Eyed Susie
TTITLE14=Kentucky Shine
TTITLE15=True Blue Bill
TTITLE16=Dixieland (My Old Home Town)
TTITLE17=Old Time Pickin'
EXTD=
EXTT0=
EXTT1=
EXTT2=
EXTT3=
EXTT4=
EXTT5=
EXTT6=
EXTT7=
EXTT8=
EXTT9=
EXTT10=
EXTT11=
EXTT12=
EXTT13=
EXTT14=
EXTT15=
EXTT16=
EXTT17=
PLAYORDER=
